<svg width="238" height="101" viewBox="0 0 238 101" fill="none" xmlns="http://www.w3.org/2000/svg">
<path d="M83.1154 55.0243H76.0293L74.8566 58.6742H71.1094L77.5074 39.4922H81.6625L88.061 58.6742H84.2881L83.1154 55.0243ZM82.1471 51.951L79.5725 43.9378L76.9976 51.951H82.1471Z" fill="#151515"/>
<path d="M102.767 43.4609V58.6638H99.1732V56.7432C98.7143 57.4018 98.1114 57.923 97.3634 58.3073C96.6328 58.6734 95.8339 58.8562 94.9676 58.8562C93.8627 58.8562 92.8856 58.6089 92.0361 58.1149C91.1862 57.6028 90.515 56.862 90.0219 55.8922C89.5462 54.9042 89.3086 53.7334 89.3086 52.3798V43.4609H92.8771V51.8309C92.8771 53.0384 93.1573 53.9715 93.7182 54.6302C94.279 55.2703 95.0438 55.5905 96.0125 55.5905C96.9981 55.5905 97.7713 55.2703 98.3322 54.6302C98.893 53.9715 99.1732 53.0384 99.1732 51.8309V43.4609H102.767Z" fill="#151515"/>
<path d="M109.425 46.6186V53.9733C109.425 54.4855 109.535 54.8606 109.756 55.0983C109.994 55.3179 110.385 55.4276 110.929 55.4276H112.586V58.6656H110.343C107.335 58.6656 105.831 57.0924 105.831 53.9456V46.6186H104.148V43.4627H105.831V39.7031H109.425V43.4627H112.586V46.6186H109.425Z" fill="#151515"/>
<path d="M120.401 58.9158C119.042 58.9158 117.818 58.5955 116.731 57.955C115.643 57.2968 114.785 56.3728 114.156 55.1834C113.544 53.9944 113.238 52.6222 113.238 51.0672C113.238 49.5122 113.553 48.1399 114.181 46.9509C114.827 45.7617 115.702 44.847 116.807 44.2067C117.912 43.548 119.144 43.2188 120.503 43.2188C121.863 43.2188 123.095 43.548 124.199 44.2067C125.304 44.847 126.17 45.7617 126.8 46.9509C127.445 48.1399 127.768 49.5122 127.768 51.0672C127.768 52.6222 127.437 53.9944 126.774 55.1834C126.128 56.3728 125.244 57.2968 124.123 57.955C123.018 58.5955 121.778 58.9158 120.401 58.9158ZM120.401 55.5676C121.047 55.5676 121.65 55.4029 122.211 55.0736C122.789 54.7261 123.248 54.214 123.587 53.5372C123.928 52.8599 124.097 52.037 124.097 51.0672C124.097 49.6219 123.74 48.5151 123.027 47.7466C122.33 46.96 121.472 46.5667 120.452 46.5667C119.432 46.5667 118.574 46.96 117.878 47.7466C117.198 48.5151 116.858 49.6219 116.858 51.0672C116.858 52.5124 117.189 53.6283 117.852 54.4154C118.532 55.1834 119.381 55.5676 120.401 55.5676Z" fill="#151515"/>
<path d="M146.905 43.2422C148.638 43.2422 150.032 43.8185 151.085 44.971C152.156 46.1053 152.692 47.6968 152.692 49.7458V58.6646H149.123V50.2675C149.123 49.0781 148.842 48.1727 148.282 47.5508C147.721 46.9103 146.956 46.5901 145.987 46.5901C145.018 46.5901 144.245 46.9103 143.668 47.5508C143.107 48.1727 142.827 49.0781 142.827 50.2675V58.6646H139.258V50.2675C139.258 49.0781 138.977 48.1727 138.416 47.5508C137.856 46.9103 137.091 46.5901 136.123 46.5901C135.137 46.5901 134.355 46.9103 133.777 47.5508C133.216 48.1727 132.936 49.0781 132.936 50.2675V58.6646H129.367V43.4617H132.936V45.3003C133.395 44.66 133.981 44.1569 134.695 43.791C135.426 43.4251 136.224 43.2422 137.091 43.2422C138.196 43.2422 139.181 43.4983 140.048 44.0105C140.915 44.5045 141.586 45.218 142.062 46.1511C142.521 45.2729 143.183 44.5685 144.05 44.038C144.934 43.5074 145.885 43.2422 146.905 43.2422Z" fill="#151515"/>
<path d="M154.145 51.0123C154.145 49.4754 154.425 48.1127 154.986 46.9235C155.564 45.7343 156.337 44.8195 157.306 44.1792C158.291 43.5389 159.387 43.2188 160.594 43.2188C161.647 43.2188 162.565 43.4474 163.347 43.9048C164.146 44.3622 164.783 44.9384 165.259 45.6337V43.4657H168.853V58.6686H165.259V56.4458C164.8 57.1594 164.163 57.7541 163.347 58.2295C162.548 58.6872 161.622 58.9158 160.568 58.9158C159.379 58.9158 158.291 58.5865 157.306 57.9278C156.337 57.2691 155.564 56.3451 154.986 55.1562C154.425 53.9486 154.145 52.5673 154.145 51.0123ZM165.259 51.0672C165.259 50.1341 165.089 49.3384 164.749 48.6798C164.409 48.003 163.95 47.4908 163.372 47.1429C162.795 46.7771 162.174 46.5941 161.512 46.5941C160.849 46.5941 160.237 46.768 159.676 47.1157C159.115 47.4631 158.657 47.9753 158.3 48.6521C157.96 49.3107 157.79 50.0978 157.79 51.0123C157.79 51.9273 157.96 52.732 158.3 53.4274C158.657 54.1042 159.115 54.6254 159.676 54.9915C160.254 55.3576 160.866 55.5404 161.512 55.5404C162.174 55.5404 162.795 55.3667 163.372 55.0187C163.95 54.6531 164.409 54.141 164.749 53.4823C165.089 52.805 165.259 52.0003 165.259 51.0672Z" fill="#151515"/>
<path d="M175.472 46.6186V53.9733C175.472 54.4855 175.583 54.8606 175.803 55.0983C176.041 55.3179 176.432 55.4276 176.976 55.4276H178.633V58.6656H176.39C173.382 58.6656 171.878 57.0924 171.878 53.9456V46.6186H170.195V43.4627H171.878V39.7031H175.472V43.4627H178.633V46.6186H175.472Z" fill="#151515"/>
<path d="M181.989 41.6568C181.36 41.6568 180.833 41.4464 180.409 41.0256C180.001 40.5866 179.797 40.0468 179.797 39.4065C179.797 38.7662 180.001 38.2357 180.409 37.8149C180.833 37.3758 181.36 37.1562 181.989 37.1562C182.617 37.1562 183.136 37.3758 183.544 37.8149C183.969 38.2357 184.181 38.7662 184.181 39.4065C184.181 40.0468 183.969 40.5866 183.544 41.0256C183.136 41.4464 182.617 41.6568 181.989 41.6568ZM183.748 43.468V58.6709H180.179V43.468H183.748Z" fill="#151515"/>
<path d="M192.526 58.9158C191.167 58.9158 189.943 58.5955 188.856 57.955C187.768 57.2968 186.91 56.3728 186.281 55.1834C185.669 53.9944 185.363 52.6222 185.363 51.0672C185.363 49.5122 185.678 48.1399 186.306 46.9509C186.952 45.7617 187.827 44.847 188.932 44.2067C190.037 43.548 191.269 43.2188 192.628 43.2188C193.988 43.2188 195.22 43.548 196.324 44.2067C197.429 44.847 198.296 45.7617 198.925 46.9509C199.57 48.1399 199.893 49.5122 199.893 51.0672C199.893 52.6222 199.562 53.9944 198.899 55.1834C198.253 56.3728 197.37 57.2968 196.248 57.955C195.143 58.5955 193.903 58.9158 192.526 58.9158ZM192.526 55.5676C193.172 55.5676 193.775 55.4029 194.336 55.0736C194.914 54.7261 195.373 54.214 195.712 53.5372C196.053 52.8599 196.222 52.037 196.222 51.0672C196.222 49.6219 195.865 48.5151 195.152 47.7466C194.455 46.96 193.597 46.5667 192.577 46.5667C191.558 46.5667 190.699 46.96 190.003 47.7466C189.323 48.5151 188.983 49.6219 188.983 51.0672C188.983 52.5124 189.314 53.6283 189.977 54.4154C190.657 55.1834 191.507 55.5676 192.526 55.5676Z" fill="#151515"/>
<path d="M209.314 43.2422C210.996 43.2422 212.356 43.8185 213.393 44.971C214.429 46.1053 214.948 47.6968 214.948 49.7458V58.6646H211.379V50.2675C211.379 49.06 211.098 48.1359 210.538 47.4959C209.977 46.8371 209.212 46.5078 208.244 46.5078C207.258 46.5078 206.476 46.8371 205.898 47.4959C205.337 48.1359 205.057 49.06 205.057 50.2675V58.6646H201.488V43.4617H205.057V45.3552C205.533 44.6966 206.136 44.1844 206.867 43.8185C207.615 43.4343 208.43 43.2422 209.314 43.2422Z" fill="#151515"/>
<path d="M41.8714 43.0698V38.4477C36.6354 38.6416 32.4461 43.2723 32.4461 48.9562V49.6921H23.2734V48.9562C23.2734 37.8183 31.5689 28.7661 41.8714 28.5698V23.5703L57.592 33.504L41.8714 43.0698Z" fill="#151515"/>
<path d="M49.9303 48.9531V49.6891C49.9303 55.3732 45.7415 60.0034 40.5057 60.1977V55.5761L24.7852 65.1415L40.5057 75.0754V70.0758C50.8077 69.8791 59.1033 60.8273 59.1033 49.6891V48.9531H49.9303Z" fill="#151515"/>
</svg>
