<svg width="276" height="101" viewBox="0 0 276 101" fill="none" xmlns="http://www.w3.org/2000/svg">
<path d="M84.6875 67.7379L87.3104 67.031V36.8671L84.6875 36.1601V35.4531H96.4895C100.919 35.4531 104.168 36.2229 106.237 37.7626C108.335 39.2708 109.384 41.2503 109.384 43.701C109.384 45.3979 108.932 46.7647 108.029 47.8013C107.126 48.8383 105.975 49.6081 104.576 50.1109C103.09 50.6765 101.487 50.9748 99.7676 51.0062V51.2422C101.895 51.3364 103.745 51.6818 105.319 52.2788C106.922 52.8444 108.247 53.7245 109.297 54.9181C110.375 56.1122 110.914 57.6364 110.914 59.4898C110.914 62.2866 109.85 64.4859 107.723 66.0886C105.596 67.6594 102.143 68.4449 97.3635 68.4449H84.6875V67.7379ZM96.4895 50.5352C97.4513 50.5352 98.3399 50.2522 99.1556 49.6866C100.001 49.0895 100.671 48.2727 101.167 47.2361C101.691 46.1676 101.953 44.9893 101.953 43.701C101.953 42.3186 101.691 41.0932 101.167 40.0248C100.671 38.9565 100.001 38.1239 99.1556 37.5269C98.3399 36.9299 97.4513 36.6314 96.4895 36.6314H94.5226V50.5352H96.4895ZM97.3635 67.2665C99.1702 67.2665 100.642 66.5753 101.779 65.1928C102.915 63.8103 103.483 61.9094 103.483 59.4898C103.483 57.0707 102.915 55.1698 101.779 53.7873C100.642 52.4048 99.1702 51.7132 97.3635 51.7132H94.5226V67.2665H97.3635Z" fill="#151515"/>
<path d="M111.773 67.7379L114.396 67.031V36.8671L111.773 36.1601V35.4531H117.456C120.078 35.4531 121.39 36.8671 121.39 39.6949V67.031L124.013 67.7379V68.4449H111.773V67.7379Z" fill="#151515"/>
<path d="M136.032 69.1512C132.419 69.1512 129.578 68.0518 127.509 65.8521C125.469 63.6214 124.449 60.5577 124.449 56.6616C124.449 52.7654 125.469 49.7174 127.509 47.5181C129.578 45.2874 132.419 44.1719 136.032 44.1719C139.646 44.1719 142.472 45.2874 144.512 47.5181C146.581 49.7174 147.616 52.7654 147.616 56.6616C147.616 60.5577 146.581 63.6214 144.512 65.8521C142.472 68.0518 139.646 69.1512 136.032 69.1512ZM136.032 68.2088C137.198 68.2088 138.174 67.3287 138.961 65.5695C139.777 63.8098 140.185 60.8403 140.185 56.6616C140.185 52.4828 139.777 49.5133 138.961 47.7536C138.174 45.9944 137.198 45.1143 136.032 45.1143C134.867 45.1143 133.876 45.9944 133.06 47.7536C132.273 49.5133 131.88 52.4828 131.88 56.6616C131.88 60.8403 132.273 63.8098 133.06 65.5695C133.876 67.3287 134.867 68.2088 136.032 68.2088Z" fill="#151515"/>
<path d="M159.21 69.1512C157.403 69.1512 155.786 68.7273 154.358 67.8787C153.659 67.4705 153.09 67.0304 152.653 66.559C152.187 67.2502 151.677 67.7845 151.124 68.1617C150.861 68.3501 150.57 68.5228 150.249 68.6802H149.156V60.6676H150.905C151.284 61.9873 151.837 63.2128 152.566 64.344C154.11 66.7635 156.034 67.9729 158.336 67.9729C159.56 67.9729 160.477 67.6589 161.089 67.0304C161.73 66.3706 162.051 65.4282 162.051 64.2027C162.051 63.1657 161.614 62.3017 160.74 61.6105C159.895 60.8879 158.554 60.0078 156.718 58.9712C155.145 58.1225 153.862 57.3685 152.872 56.7087C151.91 56.0174 151.08 55.1692 150.38 54.1635C149.71 53.1269 149.375 51.9171 149.375 50.5347C149.375 48.6494 150.118 47.1252 151.604 45.963C153.119 44.7689 155.436 44.1719 158.554 44.1719C160.098 44.1719 161.526 44.6119 162.838 45.4915C163.479 45.9002 164.032 46.3241 164.499 46.7641C164.877 46.1985 165.387 45.6642 166.028 45.1614C166.524 44.8474 166.816 44.6747 166.903 44.6433H167.996V52.6555H166.247C165.81 51.3044 165.271 50.0946 164.63 49.0262C163.173 46.5757 161.439 45.3502 159.428 45.3502C158.642 45.3502 157.971 45.6642 157.418 46.2927C156.864 46.9211 156.587 47.7065 156.587 48.6494C156.587 49.8434 157.053 50.8487 157.986 51.6655C158.919 52.4514 160.332 53.3624 162.226 54.3995C163.77 55.2477 164.994 56.0017 165.897 56.6616C166.83 57.29 167.617 58.0754 168.258 59.0183C168.928 59.9607 169.263 61.0606 169.263 62.3174C169.263 66.8734 165.912 69.1512 159.21 69.1512Z" fill="#151515"/>
<path d="M180.632 69.1512C178.825 69.1512 177.208 68.7273 175.78 67.8787C175.08 67.4705 174.512 67.0304 174.075 66.559C173.609 67.2502 173.099 67.7845 172.545 68.1617C172.283 68.3501 171.991 68.5228 171.671 68.6802H170.578V60.6676H172.327C172.706 61.9873 173.259 63.2128 173.988 64.344C175.532 66.7635 177.455 67.9729 179.757 67.9729C180.981 67.9729 181.899 67.6589 182.511 67.0304C183.152 66.3706 183.473 65.4282 183.473 64.2027C183.473 63.1657 183.036 62.3017 182.161 61.6105C181.316 60.8879 179.976 60.0078 178.14 58.9712C176.566 58.1225 175.284 57.3685 174.293 56.7087C173.332 56.0174 172.501 55.1692 171.802 54.1635C171.132 53.1269 170.797 51.9171 170.797 50.5347C170.797 48.6494 171.54 47.1252 173.026 45.963C174.541 44.7689 176.858 44.1719 179.976 44.1719C181.52 44.1719 182.948 44.6119 184.26 45.4915C184.901 45.9002 185.454 46.3241 185.92 46.7641C186.299 46.1985 186.809 45.6642 187.45 45.1614C187.946 44.8474 188.237 44.6747 188.324 44.6433H189.417V52.6555H187.669C187.232 51.3044 186.693 50.0946 186.052 49.0262C184.594 46.5757 182.861 45.3502 180.85 45.3502C180.063 45.3502 179.393 45.6642 178.84 46.2927C178.286 46.9211 178.009 47.7065 178.009 48.6494C178.009 49.8434 178.475 50.8487 179.408 51.6655C180.34 52.4514 181.754 53.3624 183.648 54.3995C185.192 55.2477 186.416 56.0017 187.319 56.6616C188.252 57.29 189.039 58.0754 189.68 59.0183C190.35 59.9607 190.685 61.0606 190.685 62.3174C190.685 66.8734 187.334 69.1512 180.632 69.1512Z" fill="#151515"/>
<path d="M203.361 69.1512C199.747 69.1512 196.906 68.0518 194.837 65.8521C192.797 63.6214 191.777 60.5577 191.777 56.6616C191.777 52.7654 192.797 49.7174 194.837 47.5181C196.906 45.2874 199.747 44.1719 203.361 44.1719C206.974 44.1719 209.801 45.2874 211.84 47.5181C213.909 49.7174 214.944 52.7654 214.944 56.6616C214.944 60.5577 213.909 63.6214 211.84 65.8521C209.801 68.0518 206.974 69.1512 203.361 69.1512ZM203.361 68.2088C204.526 68.2088 205.503 67.3287 206.289 65.5695C207.105 63.8098 207.513 60.8403 207.513 56.6616C207.513 52.4828 207.105 49.5133 206.289 47.7536C205.503 45.9944 204.526 45.1143 203.361 45.1143C202.195 45.1143 201.204 45.9944 200.389 47.7536C199.602 49.5133 199.208 52.4828 199.208 56.6616C199.208 60.8403 199.602 63.8098 200.389 65.5695C201.204 67.3287 202.195 68.2088 203.361 68.2088Z" fill="#151515"/>
<path d="M216.27 67.7374L218.892 67.0304V46.2927L216.27 45.5857V44.8788H220.203C221.923 44.8788 223.278 45.4758 224.268 46.6699C224.647 47.1409 224.968 47.7222 225.23 48.4135C225.667 47.5338 226.133 46.8269 226.629 46.2927C227.94 44.8788 229.441 44.1719 231.131 44.1719C232.821 44.1719 234.307 44.5805 235.59 45.3973C236.872 46.1828 237.862 47.2669 238.562 48.6494C238.999 47.7379 239.465 46.9996 239.96 46.434C241.301 44.9259 242.802 44.1719 244.462 44.1719C246.007 44.1719 247.391 44.5173 248.615 45.2085C249.868 45.9002 250.83 46.8426 251.5 48.0367C252.199 49.2307 252.549 50.5347 252.549 51.9485V67.0304L255.172 67.7374V68.4443H249.489C246.867 68.4443 245.555 67.0304 245.555 64.2027V51.9485C245.555 49.9062 245.264 48.3821 244.681 47.3768C244.098 46.3398 243.443 45.8212 242.714 45.8212C241.869 45.8212 241.01 46.4497 240.135 47.7065C239.786 48.3036 239.48 48.932 239.217 49.5918V67.0304L241.84 67.7374V68.4443H229.601V67.7374L232.224 67.0304V51.9485C232.224 49.9062 231.932 48.3821 231.35 47.3768C230.767 46.3398 230.111 45.8212 229.382 45.8212C228.537 45.8212 227.678 46.4497 226.804 47.7065C226.454 48.3036 226.148 48.932 225.886 49.5918V67.0304L228.508 67.7374V68.4443H216.27V67.7374Z" fill="#151515"/>
<path fill-rule="evenodd" clip-rule="evenodd" d="M49.1142 77.4531C48.8323 77.5128 48.5399 77.5329 48.2435 77.5085C39.0875 76.7592 30.4212 71.3061 25.4835 62.0847C20.5457 52.8627 20.4991 42.0433 24.4757 33.1187C25.053 31.823 26.3045 31.0439 27.6338 31.1527C31.0459 31.4319 34.3899 32.3642 37.4983 33.9015C39.8438 28.9702 43.314 24.7635 47.5438 21.6748C48.6475 20.8688 50.0914 20.8688 51.1952 21.6748C55.3675 24.7215 58.8005 28.8562 61.1443 33.701C64.1349 32.283 67.3337 31.4195 70.5948 31.1527C71.9243 31.0439 73.1756 31.823 73.7528 33.1187C77.7294 42.0433 77.6829 52.8627 72.7453 62.0847C67.8073 71.3061 59.1411 76.7592 49.985 77.5085C49.6886 77.5329 49.3962 77.5128 49.1142 77.4531ZM55.8225 71.8626C61.311 69.85 66.1652 65.7658 69.2884 59.9329C73.4458 52.1684 73.5813 43.0891 70.3764 35.4925C67.745 35.7678 65.1691 36.4935 62.7528 37.6393C63.9314 41.1355 64.5745 44.909 64.5745 48.8449C64.5745 57.8143 61.2345 65.9425 55.8225 71.8626ZM57.6106 35.7023C55.6527 31.649 52.8158 28.166 49.3695 25.5455C45.8491 28.2221 42.9649 31.7986 41.0035 35.9634C44.1253 38.116 46.8986 40.9477 49.1142 44.3979C51.4208 40.8063 54.3317 37.885 57.6106 35.7023ZM51.3756 48.5719C53.3812 44.8833 56.0822 41.9027 59.1973 39.7132C60.0964 42.5801 60.5834 45.6513 60.5834 48.8449C60.5834 56.2177 57.9876 62.9377 53.7202 67.9996C54.8749 61.6054 54.1764 54.7951 51.3756 48.5719ZM46.8529 48.5719C44.9379 45.049 42.3878 42.1722 39.449 40.0134C38.6091 42.7939 38.1554 45.7625 38.1554 48.8449C38.1554 55.8396 40.4917 62.2469 44.3753 67.2076C43.4151 61.0454 44.1674 54.5391 46.8529 48.5719ZM49.1142 70.1029C50.6127 64.9651 50.6742 59.3607 49.1142 54.0476C47.5543 59.3607 47.6161 64.9651 49.1142 70.1029ZM28.9401 59.9329C32.2052 66.0305 37.3623 70.2176 43.1578 72.1243C37.6036 66.1832 34.1641 57.9469 34.1641 48.8449C34.1641 44.9892 34.7813 41.289 35.9148 37.8529C33.3723 36.5834 30.6437 35.7845 27.8521 35.4925C24.6473 43.0891 24.7827 52.1684 28.9401 59.9329Z" fill="#151515"/>
</svg>
