<svg width="40" height="40" viewBox="0 0 40 40" fill="none" xmlns="http://www.w3.org/2000/svg">
<circle cx="20" cy="20" r="20" fill="#E7F0FE"/>
<g clip-path="url(#clip0_1_150)">
<path d="M22.0933 19.8753C21.8262 19.7038 21.5362 19.5707 21.232 19.48C21.0453 19.4233 20.8387 19.368 20.6253 19.3153C20.4387 19.2633 20.2173 19.21 19.944 19.15C19.6178 19.0816 19.2977 18.9871 18.9867 18.8673C18.8264 18.8051 18.6849 18.7024 18.576 18.5693C18.4963 18.4605 18.4584 18.3265 18.4693 18.192C18.4691 18.0478 18.5172 17.9077 18.606 17.794C18.7303 17.6484 18.8915 17.5391 19.0727 17.4773C19.3774 17.3726 19.6986 17.3238 20.0207 17.3333C20.2699 17.3292 20.5184 17.362 20.758 17.4307C20.9169 17.4754 21.0666 17.5481 21.2 17.6453C21.2863 17.7069 21.3598 17.7846 21.4167 17.874C21.4578 17.9517 21.514 18.0205 21.5818 18.0764C21.6497 18.1323 21.7279 18.1742 21.812 18.1998C21.8961 18.2253 21.9845 18.234 22.072 18.2253C22.1595 18.2165 22.2444 18.1906 22.3218 18.1489C22.3992 18.1072 22.4676 18.0507 22.5231 17.9824C22.5785 17.9142 22.6199 17.8357 22.6449 17.7514C22.6699 17.6671 22.678 17.5787 22.6687 17.4913C22.6594 17.4039 22.6329 17.3191 22.5907 17.242C22.4501 16.9934 22.2602 16.776 22.0327 16.6033C21.7698 16.4014 21.4716 16.2501 21.1533 16.1573C20.786 16.0488 20.4044 15.9958 20.0213 16C19.5344 15.9895 19.0497 16.0686 18.5913 16.2333C18.1768 16.3842 17.8127 16.6479 17.54 16.9947C17.2788 17.3395 17.1374 17.7601 17.1373 18.1927C17.1265 18.6233 17.2629 19.0447 17.524 19.3873C17.7761 19.7048 18.1065 19.9511 18.4827 20.102C18.7669 20.2114 19.058 20.3022 19.354 20.374C19.3593 20.376 19.3633 20.3807 19.3687 20.382C19.4967 20.4207 19.7007 20.472 19.9953 20.5353C20.1107 20.5607 20.2187 20.588 20.3267 20.6153C20.3373 20.618 20.3527 20.6213 20.3627 20.6247L20.3747 20.626C20.54 20.6687 20.6993 20.712 20.8453 20.7567C21.0247 20.8092 21.1959 20.8863 21.354 20.986C21.4526 21.0479 21.5354 21.1319 21.596 21.2313C21.6546 21.3527 21.6817 21.4868 21.6747 21.6213C21.6839 21.7955 21.6336 21.9676 21.532 22.1093C21.3948 22.2879 21.2092 22.4232 20.9973 22.4993C20.6815 22.6212 20.3444 22.6784 20.006 22.6673C19.6147 22.6824 19.2255 22.6038 18.8707 22.438C18.7068 22.3507 18.566 22.2257 18.46 22.0733C18.3856 21.9758 18.339 21.8599 18.3253 21.738C18.3253 21.5612 18.2551 21.3916 18.1301 21.2666C18.0051 21.1416 17.8355 21.0713 17.6587 21.0713C17.4819 21.0713 17.3123 21.1416 17.1873 21.2666C17.0622 21.3916 16.992 21.5612 16.992 21.738C17.003 22.1314 17.1322 22.5124 17.3627 22.8313C17.5931 23.1631 17.8999 23.4345 18.2573 23.6227C18.8012 23.888 19.4012 24.0177 20.006 24.0007C20.52 24.0131 21.0312 23.9213 21.5087 23.7307C21.9526 23.5604 22.3379 23.2657 22.6187 22.882C22.8855 22.5082 23.0223 22.0571 23.008 21.598C23.0142 21.2421 22.9281 20.8907 22.758 20.578C22.5938 20.2957 22.3662 20.0554 22.0933 19.876V19.8753ZM26.9073 21.1273C27.0871 20.0317 27.0034 18.9091 26.6632 17.8522C26.3231 16.7953 25.7362 15.8346 24.9511 15.0496C24.166 14.2645 23.2053 13.6776 22.1485 13.3374C21.0916 12.9973 19.969 12.9136 18.8733 13.0933C18.0644 12.7055 17.155 12.5783 16.2707 12.7293C15.3865 12.8803 14.5708 13.3021 13.9365 13.9365C13.3021 14.5708 12.8803 15.3865 12.7293 16.2707C12.5783 17.155 12.7055 18.0644 13.0933 18.8733C12.9138 19.9688 12.9975 21.0914 13.3377 22.1481C13.6779 23.2048 14.2647 24.1653 15.0497 24.9503C15.8347 25.7353 16.7952 26.3221 17.852 26.6623C18.9087 27.0025 20.0312 27.0863 21.1267 26.9067C21.9356 27.2945 22.845 27.4217 23.7293 27.2707C24.6136 27.1197 25.4292 26.6979 26.0635 26.0635C26.6979 25.4292 27.1197 24.6136 27.2707 23.7293C27.4217 22.845 27.2945 21.9356 26.9067 21.1267L26.9073 21.1273ZM23 26C22.4942 25.9998 21.9966 25.8718 21.5533 25.628C21.4158 25.5523 21.2561 25.5272 21.102 25.5573C20.2804 25.7212 19.4326 25.7007 18.6199 25.4972C17.8072 25.2938 17.0497 24.9125 16.4022 24.3809C15.7547 23.8492 15.2333 23.1805 14.8755 22.4229C14.5177 21.6653 14.3326 20.8378 14.3333 20C14.334 19.6298 14.3706 19.2605 14.4427 18.8973C14.4728 18.7433 14.4478 18.5835 14.372 18.446C14.059 17.8767 13.9392 17.2211 14.0308 16.5779C14.1224 15.9346 14.4203 15.3385 14.8797 14.8791C15.3392 14.4197 15.9353 14.1219 16.5786 14.0305C17.2218 13.939 17.8774 14.0589 18.4467 14.372C18.5843 14.4481 18.7444 14.4732 18.8987 14.4427C19.7202 14.2789 20.5679 14.2995 21.3806 14.503C22.1932 14.7065 22.9506 15.0878 23.598 15.6195C24.2454 16.1511 24.7668 16.8198 25.1246 17.5773C25.4823 18.3348 25.6674 19.1623 25.6667 20C25.666 20.3702 25.6294 20.7395 25.5573 21.1027C25.5272 21.2568 25.5522 21.4165 25.628 21.554C25.8795 22.0107 26.0076 22.5251 25.9996 23.0465C25.9916 23.5678 25.8479 24.078 25.5826 24.5269C25.3173 24.9757 24.9396 25.3476 24.4867 25.606C24.0338 25.8643 23.5214 26.0001 23 26Z" fill="#151515"/>
</g>
<defs>
<clipPath id="clip0_1_150">
<rect width="16" height="16" fill="white" transform="translate(12 12)"/>
</clipPath>
</defs>
</svg>
