<svg width="40" height="40" viewBox="0 0 40 40" fill="none" xmlns="http://www.w3.org/2000/svg">
<circle cx="20" cy="20" r="20" fill="#E7F0FE"/>
<path d="M26.9459 15.3333C26.4326 15.5667 25.8793 15.72 25.3059 15.7933C25.8926 15.44 26.3459 14.88 26.5593 14.2067C26.0059 14.54 25.3926 14.7733 24.7459 14.9067C24.2193 14.3333 23.4793 14 22.6393 14C21.0726 14 19.7926 15.28 19.7926 16.86C19.7926 17.0867 19.8193 17.3067 19.8659 17.5133C17.4926 17.3933 15.3793 16.2533 13.9726 14.5267C13.7259 14.9467 13.5859 15.44 13.5859 15.96C13.5859 16.9533 14.0859 17.8333 14.8593 18.3333C14.3859 18.3333 13.9459 18.2 13.5593 18V18.02C13.5593 19.4067 14.5459 20.5667 15.8526 20.8267C15.4331 20.9415 14.9927 20.9574 14.5659 20.8733C14.747 21.4417 15.1016 21.9389 15.5799 22.2953C16.0583 22.6516 16.6362 22.8491 17.2326 22.86C16.2217 23.6603 14.9686 24.0929 13.6793 24.0867C13.4526 24.0867 13.2259 24.0733 12.9993 24.0467C14.2659 24.86 15.7726 25.3333 17.3859 25.3333C22.6393 25.3333 25.5259 20.9733 25.5259 17.1933C25.5259 17.0667 25.5259 16.9467 25.5193 16.82C26.0793 16.42 26.5593 15.9133 26.9459 15.3333Z" fill="#151515"/>
</svg>
