<svg width="40" height="40" viewBox="0 0 40 40" fill="none" xmlns="http://www.w3.org/2000/svg">
<circle cx="20" cy="20" r="20" fill="#E7F0FE"/>
<path d="M18.6666 22.0002L22.1266 20.0002L18.6666 18.0002V22.0002ZM26.3733 16.7802C26.4599 17.0935 26.5199 17.5135 26.5599 18.0468C26.6066 18.5802 26.6266 19.0402 26.6266 19.4402L26.6666 20.0002C26.6666 21.4602 26.5599 22.5335 26.3733 23.2202C26.2066 23.8202 25.8199 24.2068 25.2199 24.3735C24.9066 24.4602 24.3333 24.5202 23.4533 24.5602C22.5866 24.6068 21.7933 24.6268 21.0599 24.6268L19.9999 24.6668C17.2066 24.6668 15.4666 24.5602 14.7799 24.3735C14.1799 24.2068 13.7933 23.8202 13.6266 23.2202C13.5399 22.9068 13.4799 22.4868 13.4399 21.9535C13.3933 21.4202 13.3733 20.9602 13.3733 20.5602L13.3333 20.0002C13.3333 18.5402 13.4399 17.4668 13.6266 16.7802C13.7933 16.1802 14.1799 15.7935 14.7799 15.6268C15.0933 15.5402 15.6666 15.4802 16.5466 15.4402C17.4133 15.3935 18.2066 15.3735 18.9399 15.3735L19.9999 15.3335C22.7933 15.3335 24.5333 15.4402 25.2199 15.6268C25.8199 15.7935 26.2066 16.1802 26.3733 16.7802Z" fill="#151515"/>
</svg>
